# xmcd
# Track frame offsets:
# 150
# 13640
# 26072
# 37957
# 54190
# 68747
# 78757
# 92702
# 103942
# 120235
# 133500
# 147625
#
# Disc length: 2141 seconds
# Revision: 0
# Processed by: cddbd v1.4PL0 Copyright (c) Steve Scherf et al.
# Submitted via: VisiTrax 2.9.5.180 - For more info visit www.synapsa.com
#
DISCID=95085b0c
DTITLE=Faron Young and Ray Price - Memories That Last
DYEAR=1991
DGENRE=
TTITLE0=The memories that last
TTITLE1=Everybody loves somebody
TTITLE2=Too big to fight
TTITLE3=Take a chance on me
TTITLE4=Cold, cold heart
TTITLE5=Side by side
TTITLE6=Somewhere along the way
TTITLE7=Walking my baby back home
TTITLE8=Whole lot of you
TTITLE9=Mansion on the hill
TTITLE10=When I fall in love
TTITLE11=Funny how time slips away
EXTD=
EXTT0=
EXTT1=
EXTT2=
EXTT3=
EXTT4=
EXTT5=
EXTT6=
EXTT7=
EXTT8=
EXTT9=
EXTT10=
EXTT11=
PLAYORDER=
